<?xml version="1.0" encoding="UTF-8"?>
<svg xmlns="http://www.w3.org/2000/svg" viewBox="0 0 200 80" width="200" height="80">
  <defs>
    <style>
      .logo-text { fill: #ffffff; font-family: 'Arial', sans-serif; font-weight: bold; }
      .logo-accent { fill: #ff6b35; }
      .logo-bg { fill: #1a1a1a; }
    </style>
  </defs>
  
  <!-- Background -->
  <rect class="logo-bg" width="200" height="80" rx="8"/>
  
  <!-- Car icon -->
  <g transform="translate(15, 20)">
    <path class="logo-accent" d="M8,20 L32,20 C34,20 35,21 35,23 L35,33 C35,35 34,36 32,36 L30,36 C30,38.2 28.2,40 26,40 S22,38.2 22,36 L18,36 C18,38.2 16.2,40 14,40 S10,38.2 10,36 L8,36 C6,36 5,35 5,33 L5,23 C5,21 6,20 8,20 Z M12,16 L28,16 C29,16 30,17 30,18 L30,20 L10,20 L10,18 C10,17 11,16 12,16 Z"/>
    <circle class="logo-text" cx="14" cy="36" r="2"/>
    <circle class="logo-text" cx="26" cy="36" r="2"/>
  </g>
  
  <!-- Text -->
  <text class="logo-text" x="55" y="32" font-size="18">LOYOLA</text>
  <text class="logo-text" x="55" y="50" font-size="18">MOTORS</text>
  <text class="logo-accent" x="55" y="64" font-size="10">VALENCIA</text>
</svg>